<svg id="圖層_1" data-name="圖層 1" xmlns="http://www.w3.org/2000/svg" viewBox="0 0 136.88623 53.51581">
<g style="isolation:isolate">
<path  fill="white" d="M3.95508,39.71143A62.81143,62.81143,0,0,0,7,32.54248a43.65821,43.65821,0,0,0,11.55029,4.498,51.50549,51.50549,0,0,0,12.25,1.61621q5.80958,0,8.18994-1.01856,2.37891-1.01806,2.37989-2.21386,0-4.28687-13.02-4.2876-14.28,0-20.71973-2.98731Q1.18872,25.1626,1.19043,18.48535q0-9.48852,7.83984-13.98681Q16.86939.00146,29.40039,0A63.21171,63.21171,0,0,1,44.34521,1.86279,60.32235,60.32235,0,0,1,58.17041,6.9585q-2.03173,4.63842-4.27,11.31591-.42041,1.407-.70019,2.1084-3.56984-2.88135-10.77979-4.81445a49.99509,49.99509,0,0,0-12.74023-1.93262q-6.65114,0-8.96.87842-2.31.87965-2.31005,2.56543,0,1.68677,3.18505,2.70605a31.837,31.837,0,0,0,9.20508,1.01905q14.8396,0,21.56006,3.40869,6.72,3.41016,6.71973,10.4375,0,9.84082-7.13965,14.16211-7.14037,4.32274-21.63037,4.32324a75.45754,75.45754,0,0,1-15.81983-1.72266A58.29771,58.29771,0,0,1,0,46.38818,68.012,68.012,0,0,0,3.95508,39.71143Z"/>
</g><g style="isolation:isolate"><path  fill="white" d="M112.03662.25732q13.92919,0,19.38965,5.13233,5.46093,5.13281,5.46,14.45117a24.7953,24.7953,0,0,1-2.16992,10.88428,14.99767,14.99767,0,0,1-7.62988,6.98828q-5.45947,2.5122-15.04981,2.51172H97.47607V53.03857H80.25635q.55956-14.12255.56054-26.42675,0-12.30249-.56054-26.42725H97.47607V.25732ZM107.13623,26.1748a58.8364,58.8364,0,0,0,8.71484-.47314,7.03654,7.03654,0,0,0,4.06055-1.71094,5.15518,5.15518,0,0,0,1.15527-3.64013,5.22939,5.22939,0,0,0-1.085-3.60352,6.669,6.669,0,0,0-3.99023-1.63818,65.21367,65.21367,0,0,0-8.85547-.437H97.47607V26.1748Z"/>
</g><circle fill="white" cx="69.15794" cy="46.81449" r="6.70132"/></svg>